/kaggle/working/opencap-processing/OpenCapData_ab7eb7cf-817d-4035-a30b-ee68773906cb/OpenSimData/Dynamics/Suhasno_3/GRF_resultant_Suhasno_3_Suhasno_3_window_4.mot
version=1
nRows=20
nColumns=19
inDegrees=yes
endheader 
time	ground_force_right_vx	ground_force_right_vy	ground_force_right_vz	ground_force_right_px	ground_force_right_py	ground_force_right_pz	ground_torque_right_x	ground_torque_right_y	ground_torque_right_z	ground_force_left_vx	ground_force_left_vy	ground_force_left_vz	ground_force_left_px	ground_force_left_py	ground_force_left_pz	ground_torque_left_x	ground_torque_left_y	ground_torque_left_z	
          4.00000000	        -10.02061130	        444.65894811	         -3.13712344	          3.09373532	          0.00000000	         -0.05037163	          0.00000000	          7.60658865	          0.00000000	          0.00000003	          0.00000004	          0.00000004	          2.91010729	          0.00000000	         -0.38943730	          0.00000000	          0.00000000	          0.00000000	
          4.05000000	         37.56831405	        488.47835573	         14.52429550	          3.06267060	          0.00000000	         -0.05540872	          0.00000000	          4.85210669	          0.00000000	          0.00000001	          0.00000002	          0.00000003	          2.90825862	          0.00000000	         -0.45390481	          0.00000000	         -0.00000000	          0.00000000	
          4.10000000	        127.63516290	        933.55706779	         74.96744122	          3.06200393	          0.00000000	         -0.05297422	          0.00000000	          1.26087715	          0.00000000	          0.00000000	          0.00000000	          0.00000000	          2.91170725	          0.00000000	         -0.51090005	          0.00000000	          0.00000000	          0.00000000	
          4.15000000	         69.33876183	       1550.30935698	        147.72851191	          3.07623519	          0.00000000	         -0.04590928	          0.00000000	         -0.33238774	          0.00000000	          0.00000000	         -0.00000000	         -0.00000000	          0.00000000	          0.00000000	          0.00000000	          0.00000000	          0.00000000	          0.00000000	
          4.20000000	         -0.00000000	         -0.00000000	          0.00000000	          0.00000000	          0.00000000	          0.00000000	          0.00000000	         -0.00000000	          0.00000000	          0.00000000	         -0.00000000	         -0.00000000	          0.00000000	          0.00000000	          0.00000000	          0.00000000	          0.00000000	          0.00000000	
          4.25000000	         -0.00000005	         -0.00000005	          0.00000004	          0.00000000	          0.00000000	          0.00000000	          0.00000000	         -0.00000011	          0.00000000	          0.00000000	         -0.00000000	         -0.00000000	          0.00000000	          0.00000000	          0.00000000	          0.00000000	          0.00000000	          0.00000000	
          4.30000000	         -0.00000001	          0.00000002	         -0.00000001	          3.10396645	          0.00000000	          0.05693273	          0.00000000	         -0.00000000	          0.00000000	         -0.00000000	         -0.00000000	         -0.00000000	          0.00000000	          0.00000000	          0.00000000	          0.00000000	          0.00000000	          0.00000000	
          4.35000000	         -0.00000083	          0.00000072	         -0.00000010	          3.09740793	          0.00000000	          0.03969745	          0.00000000	         -0.00000000	          0.00000000	         -0.00000000	         -0.00000000	         -0.00000000	          0.00000000	          0.00000000	          0.00000000	          0.00000000	          0.00000000	          0.00000000	
          4.40000000	         -0.42735289	          0.42508129	         -0.02860817	          3.11447265	          0.00000000	          0.04504534	          0.00000000	         -0.00047059	          0.00000000	         -0.00000000	         -0.00000000	         -0.00000000	          0.00000000	          0.00000000	          0.00000000	          0.00000000	          0.00000000	          0.00000000	
          4.45000000	        154.52286100	       1955.06272826	        -30.16824650	          3.12442160	          0.00000000	          0.03084030	          0.00000000	          7.05242066	          0.00000000	         -0.00000000	         -0.00000000	         -0.00000000	          0.00000000	          0.00000000	          0.00000000	          0.00000000	          0.00000000	          0.00000000	
          4.50000000	         49.26618585	        910.14799794	        -86.22296554	          3.14107554	          0.00000000	          0.02165765	          0.00000000	          0.89735570	          0.00000000	         -0.00078711	          0.00332278	         -0.00681515	          3.16837122	          0.00000000	         -0.32249044	          0.00000000	         -0.00000000	          0.00000000	
          4.55000000	         52.23796813	        588.34221827	          5.72897179	          3.16637017	          0.00000000	          0.01661564	          0.00000000	          2.02338384	          0.00000000	         -1.22099503	         58.23702046	       -101.20004151	          3.17670212	          0.00000000	         -0.24396452	          0.00000000	         -0.00066065	          0.00000000	
          4.60000000	         72.34913768	        387.72976928	         45.46158528	          3.18567080	          0.00000000	          0.00407889	          0.00000000	          1.17591201	          0.00000000	        -33.06497641	         87.27503213	       -113.00237485	          3.20341493	          0.00000000	         -0.18457344	          0.00000000	          0.01225126	          0.00000000	
          4.65000000	        160.99541150	        418.75515319	         92.01066817	          3.19427116	          0.00000000	          0.00062018	          0.00000000	          0.82525414	          0.00000000	       -108.70359151	        143.85555829	        -99.07788063	          3.24201512	          0.00000000	         -0.16301725	          0.00000000	          0.17392977	          0.00000000	
          4.70000000	         15.08120324	        237.62013997	         33.23634959	          3.20095985	          0.00000000	          0.00007380	          0.00000000	          0.02402723	          0.00000000	         45.98778949	        292.44496265	          3.47717443	          3.27254657	          0.00000000	         -0.16626341	          0.00000000	          2.77970702	          0.00000000	
          4.75000000	         -5.05647745	          4.08539356	         -0.72490968	          3.21696573	          0.00000000	          0.00148206	          0.00000000	         -0.00011054	          0.00000000	         54.45136019	        493.77744189	         22.39497822	          3.28525405	          0.00000000	         -0.17138598	          0.00000000	          0.40149362	          0.00000000	
          4.80000000	          0.02062902	         -0.01472441	          0.00362225	          0.00000000	          0.00000000	          0.00000000	          0.00000000	         -0.01161170	          0.00000000	         65.56499429	        709.26481081	         64.08869671	          3.29384544	          0.00000000	         -0.17236784	          0.00000000	         -3.92308110	          0.00000000	
          4.85000000	         -0.00060704	          0.00040006	         -0.00016629	          3.35564182	          0.00000000	          0.03137760	          0.00000000	         -0.00000001	          0.00000000	         50.18567805	        492.43805331	         40.20749640	          3.31362932	          0.00000000	         -0.17764709	          0.00000000	         -0.34148044	          0.00000000	
          4.90000000	         -0.00002323	          0.00001339	         -0.00000385	          3.43859943	          0.00000000	          0.04657838	          0.00000000	          0.00000000	          0.00000000	         44.89845809	        461.25428765	         28.66433958	          3.32947581	          0.00000000	         -0.18165919	          0.00000000	         -0.34309257	          0.00000000	
          4.95000000	         -0.00000620	          0.00000325	         -0.00000061	          3.41052365	          0.00000000	          0.03544734	          0.00000000	         -0.00000000	          0.00000000	         99.11629322	        629.66778199	         37.64120394	          3.33665453	          0.00000000	         -0.18050596	          0.00000000	         -2.76324109	          0.00000000	
